<svg xmlns="http://www.w3.org/2000/svg" xmlns:xlink="http://www.w3.org/1999/xlink" version="1.1" x="0px" y="0px" viewBox="0 0 100 100" style="enable-background:new 0 0 100 100;" xml:space="preserve"><path d="M82.6,2c-4,0-8,1.6-10.8,4.4L56.4,22H14C7.4,22,2,27.4,2,34v52c0,6.6,5.4,12,12,12h52c6.6,0,12-5.4,12-12V43.6L93.6,28  c6-6,6-15.6,0-21.6C90.6,3.6,86.8,2,82.6,2z M70,86c0,2.2-1.8,4-4,4H14c-2.2,0-4-1.8-4-4V34c0-2.2,1.8-4,4-4h34.4L34.6,43.8  c-8,8-12.6,18.8-12.4,30.2l0,0c0,2.2,1.8,4,4,4l0,0c11.4,0,22.2-4.4,30.2-12.4l13.8-13.8V86H70z M87.8,22.4L50.4,59.8  c-5.4,5.4-12.6,9-20.2,9.8c1-7.6,4.4-14.8,9.8-20.2L77.4,12c3-2.8,7.6-2.4,10.4,0.4C90.4,15.4,90.4,19.6,87.8,22.4z"/>
</svg>