<svg xmlns="http://www.w3.org/2000/svg" data-name="Layer 1" viewBox="0 0 100 100" x="0px" y="0px"><path d="M6,26a4,4,0,0,0,4-4V10H22a4,4,0,0,0,0-8H10a8,8,0,0,0-8,8V22A4,4,0,0,0,6,26Z"/><path d="M10,98H22a4,4,0,0,0,0-8H10V78a4,4,0,0,0-8,0V90A8,8,0,0,0,10,98Z"/><path d="M98,90V78a4,4,0,0,0-8,0V90H78a4,4,0,0,0,0,8H90A8,8,0,0,0,98,90Z"/><path d="M78,2a4,4,0,0,0,0,8H90V22a4,4,0,0,0,8,0V10a8,8,0,0,0-8-8Z"/><path d="M26,70a4,4,0,0,0,8,0,16,16,0,0,1,32,0,4,4,0,0,0,8,0A24,24,0,0,0,61.57,49a16,16,0,1,0-23.14,0A24,24,0,0,0,26,70ZM42,38a8,8,0,1,1,8,8A8,8,0,0,1,42,38Z"/></svg>