<svg xmlns:dc="http://purl.org/dc/elements/1.1/" xmlns:cc="http://creativecommons.org/ns#" xmlns:rdf="http://www.w3.org/1999/02/22-rdf-syntax-ns#" xmlns:svg="http://www.w3.org/2000/svg" xmlns="http://www.w3.org/2000/svg" viewBox="0 0 10.583333 10.583333" version="1.1" x="0px" y="0px"><svg:g><svg:path style="color:#000000;font-style:normal;font-variant:normal;font-weight:normal;font-stretch:normal;font-size:medium;line-height:normal;font-family:sans-serif;font-variant-ligatures:normal;font-variant-position:normal;font-variant-caps:normal;font-variant-numeric:normal;font-variant-alternates:normal;font-feature-settings:normal;text-indent:0;text-align:start;text-decoration:none;text-decoration-line:none;text-decoration-style:solid;text-decoration-color:#000000;letter-spacing:normal;word-spacing:normal;text-transform:none;writing-mode:lr-tb;direction:ltr;text-orientation:mixed;dominant-baseline:auto;baseline-shift:baseline;text-anchor:start;white-space:normal;shape-padding:0;clip-rule:nonzero;display:inline;overflow:visible;visibility:visible;opacity:1;isolation:auto;mix-blend-mode:normal;color-interpolation:sRGB;color-interpolation-filters:linearRGB;solid-color:#000000;solid-opacity:1;vector-effect:none;fill:#000000;fill-opacity:1;fill-rule:nonzero;stroke:none;stroke-width:0.52899998;stroke-linecap:round;stroke-linejoin:round;stroke-miterlimit:4;stroke-dasharray:none;stroke-dashoffset:0;stroke-opacity:1;paint-order:stroke fill markers;color-rendering:auto;image-rendering:auto;shape-rendering:auto;text-rendering:auto;enable-background:accumulate" d="M 1.0573244,0.79374992 A 0.26452644,0.26452644 0 0 0 0.79377296,1.0572989 v 2.297017 a 0.2646485,0.2646485 0 1 0 0.52916664,0 v -2.031399 h 2.029333 a 0.2646485,0.2646485 0 1 0 0,-0.52916698 z m 6.1717158,0 a 0.2646485,0.2646485 0 1 0 0,0.52916698 h 2.0313993 v 2.031399 a 0.26464799,0.26464799 0 0 0 0.5291667,0 V 1.0572989 A 0.26452644,0.26452644 0 0 0 9.523991,0.79374992 Z M 2.5419861,2.2778959 a 0.26460979,0.26460979 0 0 0 -0.2640647,0.265618 v 5.496306 a 0.26460979,0.26460979 0 0 0 0.2640647,0.265615 H 8.0398425 A 0.26460979,0.26460979 0 0 0 8.3033913,8.0398199 V 2.5435139 A 0.26460979,0.26460979 0 0 0 8.0398425,2.2778959 Z m 0.2656179,0.529167 h 4.9666207 v 4.968689 H 2.807604 Z m -1.7538991,4.154267 a 0.26452644,0.26452644 0 0 0 -0.25993194,0.267685 v 2.294951 a 0.26452644,0.26452644 0 0 0 0.26355144,0.265617 h 2.2949482 a 0.2646485,0.2646485 0 1 0 0,-0.529166 H 1.3229396 V 7.2290149 A 0.26452644,0.26452644 0 0 0 1.0537049,6.9613299 Z m 8.4666666,0 a 0.26452644,0.26452644 0 0 0 -0.259932,0.267685 v 2.031402 H 7.2290402 a 0.2646485,0.2646485 0 1 0 0,0.529166 H 9.523991 A 0.26452644,0.26452644 0 0 0 9.7896062,9.5239659 V 7.2290149 A 0.26452644,0.26452644 0 0 0 9.5203715,6.9613299 Z"/></svg:g></svg>