<svg xmlns="http://www.w3.org/2000/svg" data-name="Layer 1" viewBox="0 0 100 100" x="0px" y="0px"><path d="M6,10h4V54A12,12,0,0,0,22,66H40.34L23.17,83.17a4,4,0,0,0,5.66,5.66L46,71.66V94a4,4,0,0,0,8,0V71.66L71.17,88.83a4,4,0,0,0,5.66-5.66L59.66,66H78A12,12,0,0,0,90,54V10h4a4,4,0,0,0,0-8H6a4,4,0,0,0,0,8Zm76,0V54a4,4,0,0,1-4,4H22a4,4,0,0,1-4-4V10Z"/><path d="M32.83,44.83,42,35.66l9.17,9.17a4,4,0,0,0,5.66,0l16-16a4,4,0,0,0-5.66-5.66L54,36.34l-9.17-9.17a4,4,0,0,0-5.66,0l-12,12a4,4,0,0,0,5.66,5.66Z"/></svg>